<svg width="13" height="13" viewBox="0 0 13 13" fill="none" xmlns="http://www.w3.org/2000/svg">
<g clip-path="url(#clip0_469_6379)">
<path d="M6.5 0C8.22391 0 9.87721 0.68482 11.0962 1.90381C12.3152 3.12279 13 4.77609 13 6.5C13 8.22391 12.3152 9.87721 11.0962 11.0962C9.87721 12.3152 8.22391 13 6.5 13C4.77609 13 3.12279 12.3152 1.90381 11.0962C0.68482 9.87721 0 8.22391 0 6.5C0 4.77609 0.68482 3.12279 1.90381 1.90381C3.12279 0.68482 4.77609 0 6.5 0ZM5.89062 3.04688V6.5C5.89062 6.70312 5.99219 6.89355 6.1623 7.00781L8.5998 8.63281C8.8791 8.8207 9.25742 8.74453 9.44531 8.4627C9.6332 8.18086 9.55703 7.80508 9.2752 7.61719L7.10938 6.175V3.04688C7.10938 2.70918 6.8377 2.4375 6.5 2.4375C6.1623 2.4375 5.89062 2.70918 5.89062 3.04688Z" fill="white"/>
</g>
<defs>
<clipPath id="clip0_469_6379">
<rect width="13" height="13" fill="white"/>
</clipPath>
</defs>
</svg>
