<svg width="13" height="12" viewBox="0 0 13 12" fill="none" xmlns="http://www.w3.org/2000/svg">
<path d="M1.83989 6.0689e-07H11.4399C12.1017 6.0689e-07 12.6399 0.536401 12.6399 1.1952V8.4048C12.6399 9.0636 12.1017 9.6 11.4399 9.6H10.4935C10.0221 9.6 9.63989 9.98217 9.63989 10.4536V10.4536C9.63989 11.1254 8.89981 11.5339 8.33139 11.1759L6.35303 9.92986C6.01086 9.71435 5.61472 9.6 5.21034 9.6H1.83989C1.17809 9.6 0.639892 9.0636 0.639892 8.4048V1.1952C0.640845 0.877675 0.767733 0.573498 0.992708 0.349423C1.21768 0.125348 1.52237 -0.000318669 1.83989 6.0689e-07Z" fill="white"/>
</svg>
