<svg width="15" height="15" viewBox="0 0 15 15" fill="none" xmlns="http://www.w3.org/2000/svg">
<g clip-path="url(#clip0_629_6245)">
<path d="M7.5 14.7321C7.06488 14.7321 6.64758 14.5346 6.3399 14.183C6.03223 13.8313 5.85937 13.3544 5.85937 12.8571C5.85937 12.3599 6.03223 11.883 6.3399 11.5313C6.64758 11.1797 7.06488 10.9821 7.5 10.9821C7.93512 10.9821 8.35242 11.1797 8.6601 11.5313C8.96777 11.883 9.14062 12.3599 9.14062 12.8571C9.14062 13.3544 8.96777 13.8313 8.6601 14.183C8.35242 14.5346 7.93512 14.7321 7.5 14.7321ZM7.5 9.375C7.06488 9.375 6.64758 9.17746 6.3399 8.82583C6.03223 8.4742 5.85937 7.99729 5.85937 7.5C5.85937 7.00272 6.03223 6.52581 6.3399 6.17418C6.64758 5.82255 7.06488 5.625 7.5 5.625C7.93512 5.625 8.35242 5.82255 8.6601 6.17418C8.96777 6.52581 9.14062 7.00272 9.14062 7.5C9.14062 7.99729 8.96777 8.4742 8.6601 8.82583C8.35242 9.17746 7.93512 9.375 7.5 9.375ZM5.85937 2.14286C5.85937 1.64558 6.03223 1.16867 6.3399 0.817036C6.64758 0.465406 7.06488 0.267862 7.5 0.267862C7.93512 0.267862 8.35242 0.465406 8.6601 0.817036C8.96777 1.16867 9.14062 1.64558 9.14062 2.14286C9.14062 2.64014 8.96777 3.11706 8.6601 3.46869C8.35242 3.82032 7.93512 4.01786 7.5 4.01786C7.06488 4.01786 6.64758 3.82032 6.3399 3.46869C6.03223 3.11706 5.85937 2.64014 5.85937 2.14286Z" fill="white"/>
</g>
<defs>
<clipPath id="clip0_629_6245">
<rect width="15" height="15" fill="white" transform="translate(0 15) rotate(-90)"/>
</clipPath>
</defs>
</svg>
