<svg xmlns="http://www.w3.org/2000/svg" version="1.1" xmlns:xlink="http://www.w3.org/1999/xlink" xmlns:svgjs="http://svgjs.dev/svgjs" width="1000" height="414" viewBox="0 0 1000 414"><g transform="matrix(1,0,0,1,-0.6054976156060548,-12.778883806777003)"><svg viewBox="0 0 396 164" data-background-color="#ffffff" preserveAspectRatio="xMidYMid meet" height="414" width="1000" xmlns="http://www.w3.org/2000/svg" xmlns:xlink="http://www.w3.org/1999/xlink"><g id="tight-bounds" transform="matrix(1,0,0,1,0.23977705577999586,5.062166532153213)"><svg viewBox="0 0 395.52 158.90823613344355" height="158.90823613344355" width="395.52"><g><svg viewBox="0 0 395.52 158.90823613344355" height="158.90823613344355" width="395.52"><g transform="matrix(1,0,0,1,0,82.21326535703196)"><svg viewBox="0 0 395.52 76.69497077641161" height="76.69497077641161" width="395.52"><g id="textblocktransform"><svg viewBox="0 0 395.52 76.69497077641161" height="76.69497077641161" width="395.52" id="textblock"><g><svg viewBox="0 0 395.52 76.69497077641161" height="76.69497077641161" width="395.52"><g transform="matrix(1,0,0,1,0,0)"><svg width="395.52" viewBox="2.130250930786133 -20.447181701660156 266.6284484863281 51.70170211791992" height="76.69497077641161" data-palette-color="#471aa0"><path d="M21.866 29.515v0c-1.872-0.456-3.395-1.177-4.568-2.162-1.175-0.979-1.956-2.182-2.343-3.607-0.387-1.425-0.373-2.99 0.042-4.694v0c0.103-0.421 0.223-0.845 0.361-1.27 0.138-0.426 0.295-0.858 0.47-1.296v0c-2.636-0.642-4.909-1.662-6.819-3.061-1.908-1.405-3.43-3.072-4.566-5.003-1.129-1.929-1.847-4.021-2.155-6.278-0.301-2.255-0.17-4.543 0.395-6.861v0c0.573-2.351 1.509-4.449 2.809-6.294 1.308-1.85 2.907-3.371 4.797-4.565 1.896-1.192 4.013-1.969 6.352-2.333 2.341-0.37 4.813-0.238 7.417 0.397v0c2.61 0.636 4.874 1.64 6.79 3.012 1.918 1.366 3.445 2.997 4.582 4.894 1.143 1.898 1.875 3.936 2.196 6.113 0.32 2.178 0.203 4.407-0.353 6.687v0l-4.681 19.218c-0.409 1.678-1.088 3.142-2.038 4.392-0.956 1.249-2.159 2.133-3.61 2.651-1.455 0.51-3.148 0.53-5.078 0.06zM22.934 23.229v0c0.674 0.164 1.244 0.022 1.71-0.427 0.473-0.448 0.815-1.105 1.026-1.973v0l2.071-8.502c-1.331 0.705-2.388 1.439-3.172 2.202-0.783 0.763-1.381 1.502-1.796 2.218-0.414 0.716-0.695 1.347-0.842 1.895-0.152 0.539-0.26 0.939-0.322 1.197v0c-0.148 0.609-0.189 1.155-0.122 1.638 0.076 0.478 0.245 0.866 0.51 1.164 0.269 0.306 0.581 0.502 0.937 0.588zM17.261 10.392v0c0.453 0.11 0.893 0.193 1.318 0.249 0.434 0.051 0.87 0.078 1.308 0.082v0c0.754-0.701 1.602-1.38 2.544-2.036 0.948-0.654 2.004-1.268 3.166-1.843 1.161-0.568 2.443-1.072 3.848-1.512v0l0.93-3.819c0.36-1.477 0.436-2.916 0.228-4.318-0.202-1.394-0.66-2.672-1.371-3.834-0.706-1.16-1.622-2.159-2.749-2.995-1.121-0.836-2.423-1.434-3.906-1.796v0c-1.477-0.36-2.91-0.421-4.299-0.183-1.391 0.244-2.672 0.745-3.845 1.503-1.171 0.751-2.178 1.73-3.022 2.939-0.838 1.216-1.445 2.595-1.82 4.136v0c-0.377 1.548-0.472 3.052-0.286 4.511 0.193 1.461 0.636 2.797 1.329 4.008 0.694 1.205 1.603 2.236 2.726 3.093 1.124 0.85 2.424 1.455 3.901 1.815zM56.189 25.03l-7.009-1.189 1.603-9.455c-2.045-0.82-3.773-1.972-5.185-3.456-1.413-1.477-2.404-3.248-2.973-5.312-0.576-2.065-0.654-4.337-0.234-6.815v0l1.878-11.072 7.01 1.189-1.952 11.506c-0.233 1.374-0.152 2.672 0.242 3.895 0.4 1.231 1.087 2.281 2.063 3.149 0.974 0.875 2.197 1.438 3.669 1.688v0c1.505 0.255 2.855 0.129 4.05-0.378 1.194-0.501 2.179-1.267 2.956-2.298 0.782-1.024 1.29-2.222 1.523-3.596v0l1.952-11.506 7 1.188-1.878 11.071c-0.42 2.478-1.243 4.597-2.468 6.357-1.218 1.761-2.74 3.116-4.564 4.064-1.824 0.948-3.851 1.453-6.079 1.515v0zM98.126 29.944v0c-1.947-0.151-3.671-0.736-5.17-1.756-1.499-1.012-2.634-2.328-3.404-3.945-0.77-1.624-1.077-3.444-0.92-5.458v0l1.239-15.952c0.046-0.592-0.061-1.148-0.322-1.67-0.26-0.522-0.625-0.948-1.094-1.278-0.475-0.338-1.009-0.53-1.601-0.576v0c-0.598-0.046-1.148 0.061-1.65 0.323-0.501 0.255-0.921 0.621-1.258 1.096-0.331 0.476-0.52 1.009-0.566 1.601v0l-2.001 25.762-7.088-0.55 1.935-24.925c0.149-1.914 0.712-3.612 1.69-5.095 0.985-1.488 2.288-2.641 3.909-3.457 1.629-0.823 3.467-1.155 5.514-0.996v0c2.08 0.162 3.858 0.774 5.334 1.838 1.483 1.058 2.592 2.398 3.328 4.02 0.737 1.615 1.031 3.38 0.883 5.294v0l-1.24 15.962c-0.046 0.592 0.061 1.148 0.322 1.67 0.261 0.515 0.619 0.941 1.074 1.277 0.455 0.336 0.979 0.527 1.571 0.573v0c0.598 0.046 1.155-0.061 1.67-0.321 0.522-0.26 0.951-0.625 1.288-1.094 0.331-0.476 0.52-1.009 0.566-1.601v0l1.24-15.962c0.149-1.914 0.715-3.612 1.699-5.093 0.978-1.489 2.288-2.641 3.93-3.456 1.642-0.822 3.486-1.153 5.533-0.995v0c2.08 0.162 3.852 0.774 5.314 1.837 1.463 1.056 2.562 2.396 3.299 4.018 0.744 1.616 1.041 3.381 0.892 5.295v0l-1.935 24.925-7.089-0.551 2.001-25.762c0.046-0.592-0.051-1.147-0.292-1.668-0.247-0.521-0.605-0.946-1.074-1.277-0.475-0.338-1.009-0.53-1.601-0.576v0c-0.598-0.046-1.155 0.061-1.669 0.322-0.521 0.254-0.947 0.619-1.279 1.094-0.338 0.475-0.53 1.009-0.576 1.6v0l-1.239 15.952c-0.156 2.014-0.75 3.763-1.781 5.248-1.024 1.478-2.349 2.603-3.973 3.373-1.618 0.777-3.421 1.088-5.409 0.934zM153.382 30.903v0c-1.952 0.061-3.729-0.334-5.33-1.184-1.6-0.844-2.871-2.028-3.812-3.553-0.941-1.531-1.444-3.307-1.507-5.326v0l-0.498-15.992c-0.018-0.593-0.185-1.135-0.501-1.625-0.315-0.49-0.724-0.875-1.226-1.153-0.509-0.284-1.06-0.417-1.654-0.398v0c-0.6 0.019-1.135 0.185-1.605 0.5-0.471 0.308-0.848 0.717-1.132 1.226-0.278 0.509-0.407 1.06-0.389 1.653v0l0.805 25.827-7.107 0.221-0.778-24.987c-0.06-1.919 0.316-3.668 1.127-5.248 0.818-1.586 1.988-2.873 3.511-3.861 1.53-0.995 3.321-1.524 5.373-1.588v0c2.086-0.065 3.92 0.351 5.502 1.249 1.589 0.891 2.837 2.103 3.745 3.635 0.908 1.526 1.392 3.248 1.452 5.167v0l0.498 16.002c0.018 0.593 0.185 1.135 0.501 1.626 0.315 0.484 0.717 0.868 1.207 1.153 0.489 0.285 1.03 0.418 1.623 0.399v0c0.6-0.019 1.141-0.186 1.625-0.501 0.49-0.315 0.878-0.724 1.162-1.226 0.278-0.509 0.407-1.06 0.389-1.653v0l-0.499-16.003c-0.06-1.919 0.319-3.668 1.138-5.248 0.811-1.586 1.988-2.873 3.531-3.861 1.543-0.995 3.341-1.525 5.393-1.589v0c2.086-0.065 3.913 0.352 5.482 1.25 1.569 0.892 2.807 2.104 3.715 3.636 0.915 1.526 1.402 3.248 1.461 5.167v0l0.779 24.988-7.106 0.221-0.805-25.827c-0.018-0.593-0.175-1.135-0.471-1.626-0.302-0.491-0.704-0.875-1.207-1.153-0.509-0.284-1.06-0.417-1.653-0.399v0c-0.6 0.019-1.141 0.186-1.625 0.501-0.491 0.309-0.875 0.718-1.152 1.226-0.284 0.509-0.417 1.06-0.399 1.653v0l0.498 15.993c0.063 2.019-0.338 3.822-1.202 5.41-0.858 1.581-2.052 2.842-3.584 3.783-1.525 0.948-3.283 1.453-5.275 1.515zM203.386 26.652l-19.509 2.18-0.695-6.222 6.231-0.696-2.472-22.122-6.231 0.696-0.695-6.221 19.509-2.18 0.695 6.221-6.221 0.695 2.471 22.123 6.222-0.695zM233.371 21.992v0c-2.022 0.36-3.88 0.21-5.576-0.45-1.702-0.659-3.114-1.687-4.236-3.086-1.122-1.398-1.849-3.026-2.179-4.883v0l-2.811-15.802c-0.104-0.584-0.347-1.096-0.731-1.536-0.383-0.44-0.843-0.761-1.38-0.963-0.545-0.208-1.109-0.26-1.693-0.156v0c-0.591 0.105-1.096 0.347-1.516 0.727-0.421 0.373-0.736 0.832-0.944 1.376-0.201 0.544-0.25 1.108-0.146 1.692v0l4.527 25.441-7 1.245-4.38-24.613c-0.336-1.89-0.217-3.675 0.358-5.356 0.58-1.688 1.552-3.13 2.917-4.328 1.37-1.205 3.066-1.988 5.087-2.347v0c2.054-0.366 3.929-0.218 5.625 0.441 1.701 0.652 3.111 1.671 4.23 3.057 1.119 1.379 1.846 3.013 2.183 4.903v0l2.813 15.812c0.104 0.584 0.347 1.096 0.731 1.536 0.382 0.433 0.835 0.755 1.36 0.966 0.525 0.211 1.08 0.265 1.664 0.161v0c0.591-0.105 1.103-0.349 1.536-0.73 0.44-0.383 0.764-0.844 0.973-1.382 0.201-0.544 0.25-1.108 0.146-1.692v0l-4.527-25.44 7-1.246 4.378 24.604c0.331 1.857 0.21 3.636-0.361 5.336-0.571 1.7-1.542 3.152-2.912 4.357-1.37 1.205-3.082 1.991-5.136 2.356zM268.759 13.315l-19.056 4.714-1.503-6.077 6.086-1.506-5.345-21.608-6.086 1.505-1.503-6.077 19.055-4.713 1.503 6.077-6.076 1.503 5.345 21.609 6.077-1.504z" opacity="1" transform="matrix(1,0,0,1,0,0)" fill="#DBACFF" class="undefined-text-0" data-fill-palette-color="primary" id="text-0"></path></svg></g></svg></g></svg></g></svg></g><g transform="matrix(1,0,0,1,160.38777834899483,0)"><svg viewBox="0 0 74.74444330201034 76.69497077641161" height="76.69497077641161" width="74.74444330201034"><g><svg xmlns="http://www.w3.org/2000/svg" data-name="Layer 1" viewBox="2.130000114440918 0.8700027465820312 95.80000305175781 98.29999542236328" x="0" y="0" height="76.69497077641161" width="74.74444330201034" class="icon-icon-0" data-fill-palette-color="accent" id="icon-0"><path d="M18.83 98.82a8.15 8.15 0 0 0 2.36 0.35 8.25 8.25 0 0 0 7.69-5.33l6.84-18.25 19.42-8.06 6 8A11.52 11.52 0 0 0 71.89 80l18-2.27a8.21 8.21 0 0 0-1.09-16.35 8.08 8.08 0 0 0-1.07 0.07l-15.12 1.9L64.64 52.85 52.48 34.48a64.56 64.56 0 0 0 15.76-0.81l2.94-0.52a7.21 7.21 0 1 0-2.45-14.22l-2.2 0.39a59 59 0 0 1-20.65 0L37.3 17.74c-0.31-0.06-0.62-0.1-0.94-0.14l-0.67-0.07a12.58 12.58 0 0 0-4.21 0.17 12.73 12.73 0 0 0-5.3 2.59 13.07 13.07 0 0 0-2.38 17.2L36.91 57.32l-9.45 3.92a11.55 11.55 0 0 0-6.37 6.6L12.95 89.57a6.9 6.9 0 0 0 0.6 6.44A6.79 6.79 0 0 0 18.83 98.82Zm-0.26-7.14l8.14-21.74a5.53 5.53 0 0 1 3.05-3.16l12.81-5.31A3 3 0 0 0 43.92 57L28.8 34.18A7 7 0 0 1 30 24.94a6.79 6.79 0 0 1 2.83-1.39A5.55 5.55 0 0 1 34 23.43a9.14 9.14 0 0 1 1 0.06l0.66 0.07 0.54 0.08 8.58 1.55a65.07 65.07 0 0 0 22.76 0l2.18-0.39a1.21 1.21 0 1 1 0.4 2.39l-3 0.52a59 59 0 0 1-20.29 0 3 3 0 0 0-3 4.61l15.8 23.87 0.11 0.15 9 12a3 3 0 0 0 2.77 1.17l16.88-2.12a2.21 2.21 0 0 1 0.6 4.38l-18 2.27A5.62 5.62 0 0 1 66 71.93l-7.44-9.87a3 3 0 0 0-3.55-1L32.22 70.54a3 3 0 0 0-1.66 1.72L23.26 91.73A2.24 2.24 0 0 1 20.42 93a3 3 0 0 0-1.05-0.19 1.22 1.22 0 0 1-0.89-0.24A1.22 1.22 0 0 1 18.56 91.68Zm7.56-78.81a12 12 0 1 0-12 12A12 12 0 0 0 26.12 12.86Zm-18.05 0a6 6 0 1 1 6 6A6 6 0 0 1 8.07 12.86ZM86.79 38.63a3 3 0 0 1 0 6H67.15a3 3 0 0 1 0-6Zm8.14 16.2H75.3a3 3 0 0 1 0-6H94.93a3 3 0 1 1 0 6Z" fill="#DBACFF" data-fill-palette-color="accent"></path></svg></g></svg></g><g></g></svg></g><defs></defs></svg><rect width="395.52" height="158.90823613344355" fill="none" stroke="none" visibility="hidden"></rect></g></svg></g></svg>