<svg width="12" height="12" viewBox="0 0 12 12" fill="none" xmlns="http://www.w3.org/2000/svg">
<path d="M6.31059 1.10194V1.10194C6.14133 1.3294 5.80382 1.33847 5.62259 1.12043L5.60723 1.10194C4.30134 -0.39962 2.27657 -0.32978 0.93382 1.10194L0.839216 1.2067C-0.466671 2.70827 -0.14668 5.70952 1.09847 7.25347L1.26225 7.45247L1.44458 7.66631C2.06958 8.38802 4.79488 11.0948 5.38927 11.6839C5.46705 11.761 5.54037 11.8407 5.6338 11.8979C5.90617 12.0644 6.24639 12.027 6.4878 11.7875L7.51076 10.7664L8.42154 9.84514C9.50415 8.74129 10.3168 7.87741 10.8594 7.25347C12.1964 5.71616 12.4537 2.74402 11.1167 1.2067C9.77971 -0.330611 7.64757 -0.435372 6.31059 1.10194Z" fill="white"/>
</svg>
