<svg width="15" height="15" viewBox="0 0 15 15" fill="none" xmlns="http://www.w3.org/2000/svg">
<g clip-path="url(#clip0_629_6249)">
<path d="M8.99414 1.01953C8.65723 1.16894 8.4375 1.50585 8.4375 1.875V3.75H5.15625C2.30859 3.75 0 6.05859 0 8.90624C0 12.2256 2.3877 13.708 2.93555 14.0068C3.00879 14.0478 3.09082 14.0625 3.17285 14.0625C3.49219 14.0625 3.75 13.8018 3.75 13.4853C3.75 13.2656 3.62402 13.0635 3.46289 12.9141C3.1875 12.6533 2.8125 12.1406 2.8125 11.25C2.8125 9.69726 4.07227 8.43749 5.625 8.43749H8.4375V10.3125C8.4375 10.6816 8.6543 11.0186 8.99414 11.168C9.33398 11.3174 9.72656 11.2559 10.002 11.0098L14.6895 6.79101C14.8857 6.6123 15 6.36035 15 6.09374C15 5.82714 14.8887 5.57519 14.6895 5.39648L10.002 1.17773C9.72656 0.928706 9.33105 0.867183 8.99414 1.01953Z" fill="white"/>
</g>
<defs>
<clipPath id="clip0_629_6249">
<rect width="15" height="15" fill="white"/>
</clipPath>
</defs>
</svg>
