<svg width="19" height="15" viewBox="0 0 19 15" fill="none" xmlns="http://www.w3.org/2000/svg">
<g clip-path="url(#clip0_469_6375)">
<path d="M11.2812 5.62499C11.5647 5.62499 11.8365 5.51103 12.037 5.30816C12.2374 5.1053 12.35 4.83016 12.35 4.54326C12.35 4.25637 12.2374 3.98123 12.037 3.77836C11.8365 3.5755 11.5647 3.46153 11.2812 3.46153C10.9978 3.46153 10.726 3.5755 10.5255 3.77836C10.3251 3.98123 10.2125 4.25637 10.2125 4.54326C10.2125 4.83016 10.3251 5.1053 10.5255 5.30816C10.726 5.51103 10.9978 5.62499 11.2812 5.62499ZM11.8869 7.0673L10.5109 5.96754C10.1257 5.66105 9.58238 5.65654 9.19496 5.96078L7.34469 7.4076C6.66113 7.94395 6.71012 9.00315 7.44043 9.4719L8.7875 10.3373V12.8365C8.7875 13.2354 9.1059 13.5577 9.5 13.5577C9.8941 13.5577 10.2125 13.2354 10.2125 12.8365V9.95192C10.2125 9.71078 10.0945 9.48542 9.89633 9.35246L8.94336 8.71018L10.286 7.61718L11.1922 8.35186C11.3191 8.45327 11.475 8.50961 11.6375 8.50961H13.0625C13.4566 8.50961 13.775 8.18734 13.775 7.78846C13.775 7.38957 13.4566 7.0673 13.0625 7.0673H11.8869ZM3.62187 12.1154C3.62187 11.685 3.79078 11.2723 4.09142 10.968C4.39206 10.6637 4.79982 10.4928 5.225 10.4928C5.65018 10.4928 6.05794 10.6637 6.35858 10.968C6.65922 11.2723 6.82812 11.685 6.82812 12.1154C6.82812 12.5457 6.65922 12.9584 6.35858 13.2627C6.05794 13.567 5.65018 13.738 5.225 13.738C4.79982 13.738 4.39206 13.567 4.09142 13.2627C3.79078 12.9584 3.62187 12.5457 3.62187 12.1154ZM8.075 12.1154C8.075 11.3503 7.77473 10.6166 7.24025 10.0756C6.70578 9.53468 5.98087 9.23076 5.225 9.23076C4.46913 9.23076 3.74422 9.53468 3.20975 10.0756C2.67527 10.6166 2.375 11.3503 2.375 12.1154C2.375 12.8804 2.67527 13.6141 3.20975 14.1551C3.74422 14.6961 4.46913 15 5.225 15C5.98087 15 6.70578 14.6961 7.24025 14.1551C7.77473 13.6141 8.075 12.8804 8.075 12.1154ZM12.1719 12.1154C12.1719 11.685 12.3408 11.2723 12.6414 10.968C12.9421 10.6637 13.3498 10.4928 13.775 10.4928C14.2002 10.4928 14.6079 10.6637 14.9086 10.968C15.2092 11.2723 15.3781 11.685 15.3781 12.1154C15.3781 12.5457 15.2092 12.9584 14.9086 13.2627C14.6079 13.567 14.2002 13.738 13.775 13.738C13.3498 13.738 12.9421 13.567 12.6414 13.2627C12.3408 12.9584 12.1719 12.5457 12.1719 12.1154ZM16.625 12.1154C16.625 11.3503 16.3247 10.6166 15.7903 10.0756C15.2558 9.53468 14.5309 9.23076 13.775 9.23076C13.0191 9.23076 12.2942 9.53468 11.7597 10.0756C11.2253 10.6166 10.925 11.3503 10.925 12.1154C10.925 12.8804 11.2253 13.6141 11.7597 14.1551C12.2942 14.6961 13.0191 15 13.775 15C14.5309 15 15.2558 14.6961 15.7903 14.1551C16.3247 13.6141 16.625 12.8804 16.625 12.1154Z" fill="white"/>
</g>
<defs>
<clipPath id="clip0_469_6375">
<rect width="19" height="15" fill="white"/>
</clipPath>
</defs>
</svg>
